<svg width="194" height="194" viewBox="0 0 194 194" fill="none" xmlns="http://www.w3.org/2000/svg">
<path d="M80.8333 64.6667H48.5L40 48.5L32.3333 64.6667H16.1667C16.1667 42.3567 36.0517 24.25 60.625 24.25C85.1983 24.25 105.083 42.3567 105.083 64.6667C109.125 80.8333 129.333 133.375 113.167 177.833H80.8333C107.589 162 111.631 95.8683 107.589 75.66M105.083 57.715C113.269 51.6634 123.196 48.43 133.375 48.5C157.948 48.5 177.833 66.6067 177.833 88.9167H153.583L141.5 70.5L137.417 88.9167H113.167M107.589 75.66C91.8267 59.8167 64.99 61.11 47.6108 78.4892C30.2317 95.8683 29.0192 122.705 44.7817 138.548C44.7817 138.548 53.7049 108.578 67.5 95.5C80.1769 83.4821 107.589 75.66 107.589 75.66Z" stroke="white" stroke-width="9.16667" stroke-linecap="round" stroke-linejoin="round"/>
</svg>
