<svg width="256" height="256" viewBox="0 0 256 256" fill="none" xmlns="http://www.w3.org/2000/svg">
<g clip-path="url(#clip0_3_41)">
<rect width="256" height="256" rx="64" fill="#1B9388"/>
<path d="M114.833 97.6667H82.5L74 81.5L66.3333 97.6667H50.1667C50.1667 75.3567 70.0517 57.25 94.625 57.25C119.198 57.25 139.083 75.3567 139.083 97.6667C143.125 113.833 163.333 166.375 147.167 210.833H114.833C141.589 195 145.631 128.868 141.589 108.66M139.083 90.715C147.269 84.6634 157.196 81.43 167.375 81.5C191.948 81.5 211.833 99.6067 211.833 121.917H187.583L175.5 103.5L171.417 121.917H147.167M141.589 108.66C125.827 92.8167 98.99 94.11 81.6108 111.489C64.2317 128.868 63.0192 155.705 78.7817 171.548C78.7817 171.548 87.7049 141.578 101.5 128.5C114.177 116.482 141.589 108.66 141.589 108.66Z" stroke="white" stroke-width="9.16667" stroke-linecap="round" stroke-linejoin="round"/>
</g>
<defs>
<clipPath id="clip0_3_41">
<rect width="256" height="256" fill="white"/>
</clipPath>
</defs>
</svg>
